<svg width="166" height="20" viewBox="0 0 166 20" fill="none" xmlns="http://www.w3.org/2000/svg">
<path d="M1.296 18.208L1.728 16.72C2.032 16.848 2.392 16.992 2.808 17.152C3.24 17.312 3.712 17.448 4.224 17.56C4.736 17.656 5.24 17.704 5.736 17.704C6.6 17.704 7.32 17.592 7.896 17.368C8.472 17.144 8.904 16.832 9.192 16.432C9.496 16.016 9.648 15.56 9.648 15.064C9.648 14.472 9.48 13.968 9.144 13.552C8.824 13.136 8.344 12.752 7.704 12.4C7.064 12.032 6.272 11.656 5.328 11.272C4.624 10.952 4 10.632 3.456 10.312C2.928 9.976 2.48 9.616 2.112 9.232C1.76 8.832 1.488 8.4 1.296 7.936C1.12 7.472 1.032 6.96 1.032 6.4C1.032 5.616 1.24 4.92 1.656 4.312C2.088 3.704 2.688 3.216 3.456 2.848C4.24 2.48 5.168 2.296 6.24 2.296C7.04 2.296 7.808 2.4 8.544 2.608C9.28 2.816 9.904 3.048 10.416 3.304L9.768 4.768C9.496 4.64 9.192 4.512 8.856 4.384C8.536 4.256 8.168 4.152 7.752 4.072C7.352 3.976 6.88 3.928 6.336 3.928C5.312 3.928 4.472 4.144 3.816 4.576C3.176 5.008 2.856 5.608 2.856 6.376C2.856 6.952 3.016 7.448 3.336 7.864C3.672 8.28 4.168 8.672 4.824 9.04C5.48 9.392 6.28 9.8 7.224 10.264C7.928 10.568 8.544 10.88 9.072 11.2C9.6 11.52 10.048 11.864 10.416 12.232C10.784 12.6 11.064 13.016 11.256 13.48C11.448 13.928 11.544 14.448 11.544 15.04C11.544 15.872 11.312 16.608 10.848 17.248C10.4 17.888 9.744 18.392 8.88 18.76C8.032 19.128 6.992 19.312 5.76 19.312C5.424 19.312 5.04 19.28 4.608 19.216C4.192 19.152 3.768 19.072 3.336 18.976C2.904 18.88 2.512 18.768 2.16 18.64C1.808 18.496 1.52 18.352 1.296 18.208ZM25.0967 3.28L24.4967 4.672C24.1447 4.528 23.8007 4.408 23.4647 4.312C23.1447 4.2 22.7927 4.12 22.4087 4.072C22.0247 4.008 21.5607 3.976 21.0167 3.976C19.9447 3.976 18.9767 4.272 18.1127 4.864C17.2647 5.456 16.5847 6.272 16.0727 7.312C15.5767 8.352 15.3287 9.552 15.3287 10.912C15.3287 11.84 15.4487 12.712 15.6887 13.528C15.9287 14.344 16.2807 15.072 16.7447 15.712C17.2247 16.336 17.8007 16.824 18.4727 17.176C19.1607 17.528 19.9367 17.704 20.8007 17.704C21.6327 17.704 22.3287 17.632 22.8887 17.488C23.4487 17.344 23.9527 17.176 24.4007 16.984L25.1207 18.4C24.7847 18.576 24.3687 18.736 23.8727 18.88C23.3927 19.024 22.8887 19.136 22.3607 19.216C21.8327 19.296 21.3367 19.336 20.8727 19.336C19.6247 19.336 18.5287 19.112 17.5847 18.664C16.6407 18.216 15.8487 17.608 15.2087 16.84C14.5847 16.056 14.1127 15.16 13.7927 14.152C13.4887 13.144 13.3367 12.072 13.3367 10.936C13.3367 9.72 13.5127 8.592 13.8647 7.552C14.2167 6.512 14.7207 5.6 15.3767 4.816C16.0487 4.032 16.8567 3.424 17.8007 2.992C18.7607 2.56 19.8327 2.344 21.0167 2.344C21.3527 2.344 21.7687 2.376 22.2647 2.44C22.7767 2.504 23.2807 2.608 23.7767 2.752C24.2887 2.88 24.7287 3.056 25.0967 3.28ZM35.7686 12.832L32.8166 5.2L29.9606 12.832H35.7686ZM31.9286 2.68H33.7286L40.0166 18.856L38.1446 19.168L36.3206 14.368H29.4326L27.7286 19H25.8806L31.9286 2.68ZM49.8656 13.504L49.1936 13.624L44.3696 6.664V19H42.4976V2.68H43.6016L49.4576 11.008L55.1456 2.68H56.3456V19H54.4256V6.712L49.8656 13.504ZM71.5789 2.68L71.7949 4.192H66.1789V19H64.2589V4.192H58.7869V2.68H71.5789ZM78.6954 4.288H76.1274V10.768H78.5034C79.2714 10.768 79.9754 10.664 80.6154 10.456C81.2554 10.248 81.7754 9.912 82.1754 9.448C82.5754 8.968 82.7754 8.32 82.7754 7.504C82.7754 6.656 82.5994 6 82.2474 5.536C81.8954 5.072 81.4154 4.752 80.8074 4.576C80.1994 4.384 79.4954 4.288 78.6954 4.288ZM74.2554 2.68H78.6954C79.8314 2.68 80.8554 2.84 81.7674 3.16C82.6794 3.464 83.3994 3.968 83.9274 4.672C84.4554 5.36 84.7194 6.28 84.7194 7.432C84.7034 8.536 84.4234 9.44 83.8794 10.144C83.3514 10.832 82.6714 11.352 81.8394 11.704L85.9914 19H83.9034L80.1594 12.208C79.9354 12.24 79.6554 12.264 79.3194 12.28C78.9994 12.296 78.7034 12.304 78.4314 12.304H76.1274V19H74.2554V2.68ZM96.3546 12.832L93.4026 5.2L90.5466 12.832H96.3546ZM92.5146 2.68H94.3146L100.603 18.856L98.7306 19.168L96.9066 14.368H90.0186L88.3146 19H86.4666L92.5146 2.68ZM113.644 3.28L113.044 4.672C112.692 4.528 112.348 4.408 112.012 4.312C111.692 4.2 111.34 4.12 110.956 4.072C110.572 4.008 110.108 3.976 109.564 3.976C108.492 3.976 107.524 4.272 106.66 4.864C105.812 5.456 105.132 6.272 104.62 7.312C104.124 8.352 103.876 9.552 103.876 10.912C103.876 11.84 103.996 12.712 104.236 13.528C104.476 14.344 104.828 15.072 105.292 15.712C105.772 16.336 106.348 16.824 107.02 17.176C107.708 17.528 108.484 17.704 109.348 17.704C110.18 17.704 110.876 17.632 111.436 17.488C111.996 17.344 112.5 17.176 112.948 16.984L113.668 18.4C113.332 18.576 112.916 18.736 112.42 18.88C111.94 19.024 111.436 19.136 110.908 19.216C110.38 19.296 109.884 19.336 109.42 19.336C108.172 19.336 107.076 19.112 106.132 18.664C105.188 18.216 104.396 17.608 103.756 16.84C103.132 16.056 102.66 15.16 102.34 14.152C102.036 13.144 101.884 12.072 101.884 10.936C101.884 9.72 102.06 8.592 102.412 7.552C102.764 6.512 103.268 5.6 103.924 4.816C104.596 4.032 105.404 3.424 106.348 2.992C107.308 2.56 108.38 2.344 109.564 2.344C109.9 2.344 110.316 2.376 110.812 2.44C111.324 2.504 111.828 2.608 112.324 2.752C112.836 2.88 113.276 3.056 113.644 3.28ZM126.26 19L120.164 11.152L118.292 13.096V19H116.42V2.68H118.292V10.6L126.164 2.32L127.484 3.448L121.412 9.832L128.564 19H126.26Z" fill="white"/>
<path d="M156.672 4.288H154.104V10.768H156.48C157.248 10.768 157.952 10.664 158.592 10.456C159.232 10.248 159.752 9.912 160.152 9.448C160.552 8.968 160.752 8.32 160.752 7.504C160.752 6.656 160.576 6 160.224 5.536C159.872 5.072 159.392 4.752 158.784 4.576C158.176 4.384 157.472 4.288 156.672 4.288ZM152.232 2.68H156.672C157.808 2.68 158.832 2.84 159.744 3.16C160.656 3.464 161.376 3.968 161.904 4.672C162.432 5.36 162.696 6.28 162.696 7.432C162.68 8.536 162.4 9.44 161.856 10.144C161.328 10.832 160.648 11.352 159.816 11.704L163.968 19H161.88L158.136 12.208C157.912 12.24 157.632 12.264 157.296 12.28C156.976 12.296 156.68 12.304 156.408 12.304H154.104V19H152.232V2.68Z" fill="white"/>
<path d="M139.499 12.0547C139.398 12.0547 139.297 12.0449 139.198 12.0254C139.098 12.0052 139.001 11.9759 138.908 11.9368C138.814 11.8984 138.725 11.8509 138.64 11.7943C138.556 11.7376 138.478 11.6738 138.406 11.6022C138.334 11.5299 138.27 11.4518 138.214 11.3678C138.158 11.2832 138.109 11.194 138.071 11.1003C138.032 11.0065 138.003 10.9102 137.983 10.8105C137.963 10.7109 137.953 10.61 137.953 10.5085C137.953 10.4069 137.963 10.3066 137.983 10.207C138.003 10.1074 138.032 10.0111 138.071 9.91732C138.109 9.82292 138.158 9.73438 138.214 9.64974C138.27 9.5651 138.334 9.48698 138.406 9.41536C138.478 9.34375 138.556 9.2793 138.64 9.22331C138.725 9.16667 138.814 9.11914 138.908 9.08008C139.001 9.04167 139.098 9.01237 139.198 8.99219C139.297 8.97266 139.398 8.96289 139.499 8.96289C139.601 8.96289 139.701 8.97266 139.801 8.99219C139.9 9.01237 139.997 9.04167 140.091 9.08008C140.185 9.11914 140.274 9.16667 140.358 9.22331C140.443 9.2793 140.521 9.34375 140.592 9.41536C140.664 9.48698 140.729 9.5651 140.785 9.64974C140.841 9.73438 140.889 9.82292 140.928 9.91732C140.967 10.0111 140.996 10.1074 141.016 10.207C141.035 10.3066 141.046 10.4069 141.046 10.5085C141.045 10.61 141.035 10.7109 141.016 10.8099C140.995 10.9095 140.966 11.0065 140.927 11.1003C140.888 11.194 140.84 11.2826 140.785 11.3672C140.728 11.4518 140.663 11.5299 140.592 11.6016C140.52 11.6732 140.442 11.737 140.358 11.7936C140.273 11.8503 140.184 11.8978 140.09 11.9368C139.997 11.9753 139.9 12.0052 139.801 12.0247C139.701 12.0449 139.601 12.0547 139.499 12.0547ZM139.499 10.2878C139.47 10.2878 139.442 10.2936 139.415 10.3047C139.387 10.3158 139.364 10.332 139.343 10.3522C139.322 10.373 139.307 10.3971 139.295 10.4245C139.284 10.4512 139.279 10.4792 139.279 10.5085C139.279 10.5378 139.284 10.5664 139.295 10.5931C139.307 10.6204 139.322 10.6439 139.343 10.6647C139.364 10.6855 139.387 10.7018 139.415 10.7129C139.442 10.724 139.47 10.7298 139.499 10.7298C139.529 10.7298 139.557 10.724 139.584 10.7129C139.611 10.7018 139.635 10.6855 139.656 10.6647C139.676 10.6439 139.692 10.6204 139.703 10.5931C139.715 10.5664 139.72 10.5378 139.72 10.5085C139.72 10.4792 139.714 10.4512 139.703 10.4245C139.692 10.3971 139.676 10.373 139.656 10.3529C139.635 10.332 139.611 10.3158 139.584 10.3047C139.557 10.2936 139.529 10.2878 139.499 10.2878Z" fill="#FF3131"/>
<mask id="mask0_273_71" style="mask-type:luminance" maskUnits="userSpaceOnUse" x="130" y="1" width="19" height="19">
<path d="M130 1H149V20H130V1Z" fill="white"/>
</mask>
<g mask="url(#mask0_273_71)">
<path d="M139.499 19.9994C134.262 19.9994 130.002 15.7383 130.002 10.5013C130.002 5.265 134.262 1.00393 139.499 1.00393C140.123 1.00263 140.741 1.06187 141.353 1.18296C141.965 1.30406 142.559 1.48375 143.136 1.72203C143.712 1.96096 144.26 2.25393 144.778 2.60158C145.296 2.94859 145.775 3.34312 146.215 3.78583C146.246 3.81643 146.273 3.84963 146.297 3.88609C146.321 3.92255 146.342 3.96031 146.359 4.00067C146.375 4.04104 146.388 4.08205 146.396 4.12502C146.405 4.16734 146.409 4.21096 146.409 4.25393C146.409 4.29755 146.405 4.34052 146.396 4.38348C146.388 4.42645 146.375 4.46747 146.359 4.50783C146.342 4.5482 146.321 4.58596 146.297 4.62242C146.273 4.65888 146.246 4.69208 146.215 4.72268C146.185 4.75393 146.151 4.78127 146.115 4.80536C146.079 4.82945 146.04 4.84963 146 4.86656C145.96 4.88348 145.918 4.89585 145.876 4.90432C145.833 4.91278 145.79 4.91734 145.747 4.91734C145.703 4.91734 145.66 4.91278 145.618 4.90432C145.575 4.89585 145.533 4.88348 145.493 4.86656C145.453 4.85028 145.415 4.82945 145.379 4.80536C145.342 4.78127 145.309 4.75393 145.278 4.72333C144.9 4.34247 144.487 4.00263 144.041 3.7038C143.596 3.40497 143.124 3.15302 142.628 2.94729C142.132 2.74221 141.621 2.58726 141.094 2.48309C140.568 2.37893 140.036 2.32815 139.499 2.32945C134.993 2.32945 131.327 5.99546 131.327 10.5013C131.327 15.0078 134.993 18.6739 139.499 18.6739C144.006 18.6739 147.671 15.0078 147.671 10.5013C147.671 10.4584 147.676 10.4147 147.684 10.3724C147.693 10.3294 147.705 10.2884 147.722 10.2481C147.738 10.2077 147.759 10.1693 147.783 10.1335C147.807 10.097 147.834 10.0638 147.866 10.0332C147.896 10.002 147.93 9.97463 147.966 9.95054C148.002 9.92645 148.04 9.90627 148.081 9.88934C148.12 9.87242 148.162 9.86005 148.205 9.85158C148.247 9.84312 148.29 9.83921 148.334 9.83921C148.377 9.83921 148.42 9.84312 148.463 9.85158C148.506 9.86005 148.547 9.87242 148.588 9.88934C148.627 9.90627 148.666 9.92645 148.702 9.95054C148.738 9.97463 148.772 10.002 148.803 10.0332C148.833 10.0638 148.86 10.097 148.885 10.1335C148.909 10.1693 148.93 10.2077 148.946 10.2481C148.963 10.2884 148.975 10.3294 148.984 10.3724C148.992 10.4147 148.997 10.4584 148.997 10.5013C148.997 15.7383 144.736 19.9994 139.499 19.9994Z" fill="#FF3131"/>
</g>
<path d="M139.499 16.0261C136.454 16.0261 133.977 13.5489 133.977 10.5039C133.977 7.45967 136.454 4.98246 139.499 4.98246C139.862 4.98115 140.221 5.01631 140.577 5.08662C140.933 5.15694 141.278 5.2611 141.613 5.39977C141.949 5.5391 142.267 5.70902 142.568 5.91084C142.869 6.11267 143.148 6.34248 143.404 6.59964C143.434 6.63024 143.462 6.66345 143.486 6.6999C143.51 6.73571 143.531 6.77412 143.547 6.81449C143.564 6.85485 143.576 6.89587 143.585 6.93884C143.593 6.98115 143.598 7.02412 143.598 7.06774C143.598 7.11136 143.593 7.15433 143.585 7.1973C143.576 7.23962 143.564 7.28128 143.547 7.321C143.531 7.36136 143.51 7.39977 143.486 7.43558C143.462 7.47204 143.434 7.50524 143.404 7.53584C143.373 7.56709 143.339 7.59444 143.303 7.61852C143.267 7.64261 143.229 7.6628 143.189 7.67972C143.148 7.69665 143.107 7.70902 143.064 7.71748C143.022 7.72595 142.979 7.7305 142.936 7.7305C142.892 7.7305 142.849 7.72595 142.806 7.71748C142.764 7.70902 142.722 7.69665 142.682 7.68037C142.642 7.66345 142.604 7.64326 142.567 7.61918C142.531 7.59509 142.497 7.56774 142.467 7.53714C142.354 7.42321 142.234 7.31709 142.108 7.21683C141.982 7.11722 141.852 7.02543 141.716 6.94079C141.579 6.8555 141.439 6.77933 141.294 6.71032C141.148 6.64196 141 6.58207 140.848 6.53063C140.697 6.47855 140.542 6.43623 140.385 6.40238C140.229 6.36852 140.07 6.34378 139.911 6.32751C139.751 6.31188 139.591 6.30537 139.431 6.30798C139.27 6.31058 139.111 6.3223 138.952 6.34378C138.792 6.36462 138.635 6.39457 138.48 6.43363C138.324 6.47204 138.171 6.52022 138.021 6.57621C137.871 6.63285 137.725 6.69795 137.582 6.77087C137.439 6.84444 137.301 6.92582 137.168 7.01501C137.035 7.1042 136.907 7.20056 136.785 7.30407C136.662 7.40759 136.546 7.51826 136.436 7.63545C136.327 7.75264 136.224 7.87504 136.129 8.00394C136.033 8.13285 135.945 8.26696 135.865 8.40563C135.785 8.54496 135.713 8.68753 135.649 8.83467C135.585 8.98181 135.53 9.1322 135.484 9.28584C135.437 9.43949 135.399 9.59509 135.37 9.75264C135.342 9.91084 135.322 10.0697 135.312 10.2299C135.301 10.3894 135.3 10.5495 135.308 10.7097C135.316 10.8705 135.333 11.0293 135.359 11.1875C135.385 11.3457 135.42 11.502 135.464 11.6563C135.508 11.8106 135.561 11.9616 135.622 12.1101C135.684 12.2585 135.753 12.4024 135.831 12.5424C135.909 12.683 135.995 12.8184 136.088 12.9486C136.182 13.0788 136.282 13.2038 136.39 13.3223C136.497 13.4414 136.611 13.5534 136.732 13.6595C136.853 13.765 136.979 13.8633 137.111 13.9551C137.243 14.0463 137.38 14.1296 137.521 14.2051C137.662 14.2806 137.808 14.3483 137.957 14.4069C138.106 14.4662 138.258 14.5163 138.413 14.558C138.568 14.599 138.725 14.6315 138.883 14.655C139.042 14.6791 139.202 14.6934 139.362 14.6986C139.522 14.7038 139.682 14.6999 139.842 14.6869C140.002 14.6739 140.161 14.6511 140.318 14.6198C140.475 14.5886 140.63 14.5489 140.783 14.4994C140.936 14.4506 141.085 14.3926 141.231 14.3269C141.377 14.2605 141.519 14.1862 141.657 14.1036C141.794 14.0215 141.926 13.931 142.054 13.8334C142.181 13.7357 142.303 13.6315 142.418 13.5196C142.533 13.4082 142.641 13.2904 142.744 13.1667C142.845 13.0424 142.939 12.9128 143.026 12.778C143.113 12.6433 143.192 12.5039 143.263 12.3601C143.334 12.2162 143.397 12.069 143.451 11.918C143.505 11.767 143.549 11.6133 143.586 11.4571C143.622 11.3008 143.65 11.1433 143.669 10.9838C143.687 10.8243 143.696 10.6647 143.696 10.5039C143.696 10.461 143.7 10.4174 143.708 10.375C143.717 10.3321 143.73 10.2911 143.746 10.2507C143.763 10.2103 143.783 10.1719 143.807 10.1361C143.831 10.0996 143.859 10.0664 143.89 10.0358C143.921 10.0046 143.954 9.97725 143.99 9.95316C144.027 9.92907 144.064 9.90889 144.105 9.89196C144.145 9.87504 144.186 9.86267 144.229 9.8542C144.272 9.84574 144.315 9.84183 144.359 9.84183C144.402 9.84183 144.445 9.84574 144.488 9.8542C144.531 9.86267 144.572 9.87504 144.612 9.89196C144.652 9.90889 144.69 9.92907 144.727 9.95316C144.763 9.97725 144.796 10.0046 144.827 10.0358C144.857 10.0664 144.885 10.0996 144.91 10.1361C144.934 10.1719 144.954 10.2103 144.971 10.2507C144.987 10.2911 145 10.3321 145.008 10.375C145.017 10.4174 145.021 10.461 145.021 10.5039C145.021 13.5489 142.544 16.0261 139.499 16.0261Z" fill="#FF3131"/>
<path d="M147.671 2.99561C147.628 2.99561 147.586 2.99105 147.544 2.98193C147.459 2.96175 147.38 2.9292 147.305 2.88493C147.269 2.85954 147.235 2.83154 147.203 2.80094C147.173 2.76904 147.145 2.73519 147.119 2.69938C147.096 2.66227 147.076 2.62386 147.057 2.58415C147.043 2.54378 147.031 2.50277 147.022 2.4611C147.013 2.41878 147.008 2.37581 147.009 2.33285C147.01 2.1499 147.075 1.9943 147.203 1.8641C147.235 1.83415 147.269 1.80615 147.305 1.78076C147.341 1.75667 147.379 1.73779 147.419 1.72282C147.46 1.70524 147.501 1.69157 147.544 1.68311C147.629 1.66553 147.714 1.66553 147.799 1.68311C147.842 1.69157 147.883 1.70524 147.923 1.72282C147.964 1.73779 148.002 1.75667 148.038 1.78076C148.074 1.80615 148.108 1.83415 148.139 1.8641C148.268 1.99365 148.333 2.1499 148.334 2.33285C148.335 2.37581 148.33 2.41878 148.321 2.4611C148.312 2.50277 148.3 2.54378 148.285 2.58415C148.268 2.62386 148.247 2.66227 148.224 2.69938C148.198 2.73519 148.17 2.76904 148.139 2.80094C148.01 2.92985 147.854 2.9943 147.671 2.99561Z" fill="#FF3131"/>
<path d="M139.499 11.1667C139.434 11.1667 139.37 11.1569 139.307 11.138C139.244 11.1191 139.186 11.0911 139.131 11.0553C139.077 11.0189 139.029 10.9753 138.987 10.9245C138.945 10.8737 138.912 10.8184 138.887 10.7578C138.862 10.6973 138.846 10.6341 138.84 10.569C138.833 10.5039 138.837 10.4395 138.85 10.375C138.862 10.3105 138.884 10.2493 138.915 10.1921C138.946 10.1341 138.984 10.082 139.031 10.0358L145.278 3.78841C145.309 3.75781 145.342 3.73047 145.378 3.70573C145.415 3.68164 145.453 3.66146 145.493 3.64453C145.533 3.62826 145.575 3.61523 145.617 3.60677C145.66 3.59831 145.703 3.59375 145.747 3.59375C145.79 3.59375 145.833 3.59831 145.876 3.60677C145.919 3.61523 145.96 3.6276 146.001 3.64453C146.04 3.66081 146.079 3.68164 146.115 3.70573C146.151 3.72982 146.185 3.75716 146.216 3.78841C146.246 3.81901 146.274 3.85221 146.298 3.88867C146.322 3.92448 146.342 3.96289 146.359 4.00326C146.376 4.04362 146.389 4.08464 146.397 4.1276C146.406 4.16992 146.41 4.21354 146.41 4.25716C146.41 4.30013 146.406 4.34375 146.397 4.38607C146.388 4.42904 146.376 4.47005 146.359 4.51042C146.342 4.55078 146.322 4.58919 146.298 4.625C146.273 4.66146 146.246 4.69466 146.215 4.72526L139.967 10.9727C139.839 11.1022 139.682 11.1667 139.499 11.1667Z" fill="#FF3131"/>
<path d="M146.567 17.3516C146.466 17.3516 146.365 17.3418 146.266 17.3223C146.166 17.3021 146.069 17.2728 145.975 17.2344C145.882 17.1953 145.792 17.1478 145.708 17.0911C145.624 17.0352 145.546 16.9707 145.474 16.8991C145.402 16.8275 145.338 16.7493 145.282 16.6647C145.225 16.5801 145.178 16.4909 145.139 16.3971C145.1 16.3034 145.07 16.207 145.051 16.1074C145.031 16.0078 145.021 15.9076 145.021 15.806C145.021 15.7044 145.031 15.6035 145.051 15.5039C145.07 15.4043 145.1 15.3079 145.139 15.2142C145.178 15.1204 145.225 15.0313 145.282 14.9466C145.338 14.8626 145.402 14.7845 145.474 14.7122C145.546 14.6406 145.624 14.5768 145.708 14.5202C145.792 14.4635 145.882 14.416 145.975 14.3776C146.069 14.3385 146.166 14.3092 146.266 14.2891C146.365 14.2695 146.466 14.2598 146.567 14.2598C146.669 14.2598 146.77 14.2695 146.869 14.2891C146.968 14.3092 147.065 14.3385 147.159 14.3776C147.253 14.416 147.342 14.4635 147.427 14.5202C147.511 14.5768 147.589 14.6406 147.66 14.7122C147.733 14.7845 147.796 14.8626 147.853 14.9466C147.909 15.0313 147.957 15.1204 147.996 15.2142C148.035 15.3079 148.064 15.4043 148.083 15.5039C148.104 15.6035 148.113 15.7044 148.113 15.806C148.113 15.9069 148.103 16.0078 148.083 16.1074C148.063 16.207 148.034 16.3034 147.995 16.3971C147.956 16.4909 147.909 16.5801 147.852 16.6641C147.796 16.7487 147.732 16.8268 147.66 16.8984C147.588 16.9701 147.51 17.0345 147.426 17.0905C147.341 17.1471 147.252 17.1947 147.159 17.2337C147.065 17.2728 146.968 17.3021 146.869 17.3216C146.769 17.3418 146.669 17.3516 146.567 17.3516ZM146.567 15.5846C146.538 15.5846 146.51 15.5905 146.483 15.6016C146.456 15.6126 146.432 15.6289 146.411 15.6497C146.39 15.6699 146.374 15.694 146.363 15.7214C146.352 15.748 146.346 15.7767 146.346 15.806C146.346 15.8353 146.352 15.8633 146.363 15.89C146.374 15.9173 146.39 15.9414 146.411 15.9616C146.432 15.9824 146.456 15.9987 146.483 16.0098C146.51 16.0208 146.538 16.0267 146.567 16.0267C146.596 16.0267 146.624 16.0208 146.652 16.0098C146.679 15.9987 146.703 15.9824 146.723 15.9616C146.744 15.9414 146.76 15.9173 146.772 15.89C146.783 15.8633 146.788 15.8353 146.788 15.806C146.788 15.7767 146.783 15.748 146.771 15.7214C146.76 15.694 146.744 15.6706 146.723 15.6497C146.703 15.6289 146.678 15.6126 146.652 15.6016C146.624 15.5905 146.596 15.5846 146.567 15.5846Z" fill="#FF3131"/>
<path d="M136.849 16.028C136.747 16.028 136.646 16.0182 136.547 15.998C136.448 15.9785 136.351 15.9492 136.257 15.9102C136.163 15.8711 136.074 15.8236 135.99 15.7676C135.906 15.7109 135.827 15.6471 135.756 15.5749C135.684 15.5033 135.62 15.4251 135.563 15.3405C135.507 15.2565 135.459 15.1673 135.421 15.0736C135.382 14.9798 135.352 14.8828 135.333 14.7832C135.313 14.6836 135.303 14.5833 135.303 14.4818C135.303 14.3802 135.313 14.2799 135.333 14.1803C135.352 14.0807 135.382 13.9837 135.421 13.89C135.459 13.7962 135.507 13.707 135.563 13.623C135.62 13.5384 135.684 13.4603 135.756 13.3887C135.827 13.3171 135.906 13.2526 135.99 13.196C136.074 13.14 136.163 13.0924 136.257 13.0534C136.351 13.0143 136.448 12.985 136.547 12.9655C136.646 12.9453 136.747 12.9355 136.849 12.9355C136.951 12.9355 137.051 12.9453 137.15 12.9655C137.25 12.985 137.346 13.0143 137.441 13.0534C137.535 13.0924 137.623 13.14 137.708 13.196C137.792 13.2526 137.87 13.3171 137.942 13.3887C138.014 13.4603 138.078 13.5384 138.134 13.623C138.191 13.707 138.238 13.7962 138.277 13.89C138.316 13.9837 138.346 14.0807 138.365 14.1803C138.385 14.2799 138.395 14.3802 138.395 14.4818C138.395 14.5833 138.385 14.6836 138.365 14.7832C138.345 14.8828 138.316 14.9792 138.277 15.0729C138.238 15.1667 138.19 15.2559 138.133 15.3405C138.077 15.4245 138.013 15.5026 137.941 15.5742C137.87 15.6465 137.792 15.7103 137.707 15.7669C137.623 15.8229 137.534 15.8711 137.44 15.9095C137.346 15.9486 137.25 15.9779 137.15 15.998C137.051 16.0176 136.951 16.028 136.849 16.028ZM136.849 14.2611C136.82 14.2611 136.791 14.2663 136.764 14.278C136.737 14.2891 136.714 14.3047 136.693 14.3255C136.672 14.3464 136.656 14.3704 136.645 14.3971C136.633 14.4245 136.628 14.4525 136.628 14.4818C136.628 14.5111 136.633 14.5391 136.645 14.5664C136.656 14.5931 136.672 14.6172 136.693 14.638C136.714 14.6589 136.737 14.6745 136.764 14.6855C136.791 14.6973 136.82 14.7025 136.849 14.7025C136.878 14.7025 136.906 14.6973 136.934 14.6855C136.96 14.6745 136.984 14.6589 137.005 14.638C137.025 14.6172 137.042 14.5931 137.053 14.5664C137.064 14.5391 137.07 14.5111 137.07 14.4818C137.07 14.4525 137.064 14.4245 137.053 14.3971C137.042 14.3704 137.025 14.3464 137.005 14.3255C136.984 14.3047 136.96 14.2891 136.934 14.278C136.906 14.2663 136.878 14.2611 136.849 14.2611Z" fill="#FF3131"/>
</svg>
