<svg width="166" height="20" viewBox="0 0 166 20" fill="none" xmlns="http://www.w3.org/2000/svg">
<path d="M1.296 18.208L1.728 16.72C2.032 16.848 2.392 16.992 2.808 17.152C3.24 17.312 3.712 17.448 4.224 17.56C4.736 17.656 5.24 17.704 5.736 17.704C6.6 17.704 7.32 17.592 7.896 17.368C8.472 17.144 8.904 16.832 9.192 16.432C9.496 16.016 9.648 15.56 9.648 15.064C9.648 14.472 9.48 13.968 9.144 13.552C8.824 13.136 8.344 12.752 7.704 12.4C7.064 12.032 6.272 11.656 5.328 11.272C4.624 10.952 4 10.632 3.456 10.312C2.928 9.976 2.48 9.616 2.112 9.232C1.76 8.832 1.488 8.4 1.296 7.936C1.12 7.472 1.032 6.96 1.032 6.4C1.032 5.616 1.24 4.92 1.656 4.312C2.088 3.704 2.688 3.216 3.456 2.848C4.24 2.48 5.168 2.296 6.24 2.296C7.04 2.296 7.808 2.4 8.544 2.608C9.28 2.816 9.904 3.048 10.416 3.304L9.768 4.768C9.496 4.64 9.192 4.512 8.856 4.384C8.536 4.256 8.168 4.152 7.752 4.072C7.352 3.976 6.88 3.928 6.336 3.928C5.312 3.928 4.472 4.144 3.816 4.576C3.176 5.008 2.856 5.608 2.856 6.376C2.856 6.952 3.016 7.448 3.336 7.864C3.672 8.28 4.168 8.672 4.824 9.04C5.48 9.392 6.28 9.8 7.224 10.264C7.928 10.568 8.544 10.88 9.072 11.2C9.6 11.52 10.048 11.864 10.416 12.232C10.784 12.6 11.064 13.016 11.256 13.48C11.448 13.928 11.544 14.448 11.544 15.04C11.544 15.872 11.312 16.608 10.848 17.248C10.4 17.888 9.744 18.392 8.88 18.76C8.032 19.128 6.992 19.312 5.76 19.312C5.424 19.312 5.04 19.28 4.608 19.216C4.192 19.152 3.768 19.072 3.336 18.976C2.904 18.88 2.512 18.768 2.16 18.64C1.808 18.496 1.52 18.352 1.296 18.208ZM25.0967 3.28L24.4967 4.672C24.1447 4.528 23.8007 4.408 23.4647 4.312C23.1447 4.2 22.7927 4.12 22.4087 4.072C22.0247 4.008 21.5607 3.976 21.0167 3.976C19.9447 3.976 18.9767 4.272 18.1127 4.864C17.2647 5.456 16.5847 6.272 16.0727 7.312C15.5767 8.352 15.3287 9.552 15.3287 10.912C15.3287 11.84 15.4487 12.712 15.6887 13.528C15.9287 14.344 16.2807 15.072 16.7447 15.712C17.2247 16.336 17.8007 16.824 18.4727 17.176C19.1607 17.528 19.9367 17.704 20.8007 17.704C21.6327 17.704 22.3287 17.632 22.8887 17.488C23.4487 17.344 23.9527 17.176 24.4007 16.984L25.1207 18.4C24.7847 18.576 24.3687 18.736 23.8727 18.88C23.3927 19.024 22.8887 19.136 22.3607 19.216C21.8327 19.296 21.3367 19.336 20.8727 19.336C19.6247 19.336 18.5287 19.112 17.5847 18.664C16.6407 18.216 15.8487 17.608 15.2087 16.84C14.5847 16.056 14.1127 15.16 13.7927 14.152C13.4887 13.144 13.3367 12.072 13.3367 10.936C13.3367 9.72 13.5127 8.592 13.8647 7.552C14.2167 6.512 14.7207 5.6 15.3767 4.816C16.0487 4.032 16.8567 3.424 17.8007 2.992C18.7607 2.56 19.8327 2.344 21.0167 2.344C21.3527 2.344 21.7687 2.376 22.2647 2.44C22.7767 2.504 23.2807 2.608 23.7767 2.752C24.2887 2.88 24.7287 3.056 25.0967 3.28ZM35.7686 12.832L32.8166 5.2L29.9606 12.832H35.7686ZM31.9286 2.68H33.7286L40.0166 18.856L38.1446 19.168L36.3206 14.368H29.4326L27.7286 19H25.8806L31.9286 2.68ZM49.8656 13.504L49.1936 13.624L44.3696 6.664V19H42.4976V2.68H43.6016L49.4576 11.008L55.1456 2.68H56.3456V19H54.4256V6.712L49.8656 13.504ZM71.5789 2.68L71.7949 4.192H66.1789V19H64.2589V4.192H58.7869V2.68H71.5789ZM78.6954 4.288H76.1274V10.768H78.5034C79.2714 10.768 79.9754 10.664 80.6154 10.456C81.2554 10.248 81.7754 9.912 82.1754 9.448C82.5754 8.968 82.7754 8.32 82.7754 7.504C82.7754 6.656 82.5994 6 82.2474 5.536C81.8954 5.072 81.4154 4.752 80.8074 4.576C80.1994 4.384 79.4954 4.288 78.6954 4.288ZM74.2554 2.68H78.6954C79.8314 2.68 80.8554 2.84 81.7674 3.16C82.6794 3.464 83.3994 3.968 83.9274 4.672C84.4554 5.36 84.7194 6.28 84.7194 7.432C84.7034 8.536 84.4234 9.44 83.8794 10.144C83.3514 10.832 82.6714 11.352 81.8394 11.704L85.9914 19H83.9034L80.1594 12.208C79.9354 12.24 79.6554 12.264 79.3194 12.28C78.9994 12.296 78.7034 12.304 78.4314 12.304H76.1274V19H74.2554V2.68ZM96.3546 12.832L93.4026 5.2L90.5466 12.832H96.3546ZM92.5146 2.68H94.3146L100.603 18.856L98.7306 19.168L96.9066 14.368H90.0186L88.3146 19H86.4666L92.5146 2.68ZM113.644 3.28L113.044 4.672C112.692 4.528 112.348 4.408 112.012 4.312C111.692 4.2 111.34 4.12 110.956 4.072C110.572 4.008 110.108 3.976 109.564 3.976C108.492 3.976 107.524 4.272 106.66 4.864C105.812 5.456 105.132 6.272 104.62 7.312C104.124 8.352 103.876 9.552 103.876 10.912C103.876 11.84 103.996 12.712 104.236 13.528C104.476 14.344 104.828 15.072 105.292 15.712C105.772 16.336 106.348 16.824 107.02 17.176C107.708 17.528 108.484 17.704 109.348 17.704C110.18 17.704 110.876 17.632 111.436 17.488C111.996 17.344 112.5 17.176 112.948 16.984L113.668 18.4C113.332 18.576 112.916 18.736 112.42 18.88C111.94 19.024 111.436 19.136 110.908 19.216C110.38 19.296 109.884 19.336 109.42 19.336C108.172 19.336 107.076 19.112 106.132 18.664C105.188 18.216 104.396 17.608 103.756 16.84C103.132 16.056 102.66 15.16 102.34 14.152C102.036 13.144 101.884 12.072 101.884 10.936C101.884 9.72 102.06 8.592 102.412 7.552C102.764 6.512 103.268 5.6 103.924 4.816C104.596 4.032 105.404 3.424 106.348 2.992C107.308 2.56 108.38 2.344 109.564 2.344C109.9 2.344 110.316 2.376 110.812 2.44C111.324 2.504 111.828 2.608 112.324 2.752C112.836 2.88 113.276 3.056 113.644 3.28ZM126.26 19L120.164 11.152L118.292 13.096V19H116.42V2.68H118.292V10.6L126.164 2.32L127.484 3.448L121.412 9.832L128.564 19H126.26Z" fill="black"/>
<path d="M156.672 4.288H154.104V10.768H156.48C157.248 10.768 157.952 10.664 158.592 10.456C159.232 10.248 159.752 9.912 160.152 9.448C160.552 8.968 160.752 8.32 160.752 7.504C160.752 6.656 160.576 6 160.224 5.536C159.872 5.072 159.392 4.752 158.784 4.576C158.176 4.384 157.472 4.288 156.672 4.288ZM152.232 2.68H156.672C157.808 2.68 158.832 2.84 159.744 3.16C160.656 3.464 161.376 3.968 161.904 4.672C162.432 5.36 162.696 6.28 162.696 7.432C162.68 8.536 162.4 9.44 161.856 10.144C161.328 10.832 160.648 11.352 159.816 11.704L163.968 19H161.88L158.136 12.208C157.912 12.24 157.632 12.264 157.296 12.28C156.976 12.296 156.68 12.304 156.408 12.304H154.104V19H152.232V2.68Z" fill="black"/>
<circle cx="139.5" cy="10.5" r="9.5" fill="#6926D9"/>
<path d="M139.5 11.726C139.419 11.726 139.34 11.7183 139.262 11.7029C139.183 11.687 139.106 11.6639 139.032 11.633C138.958 11.6027 138.888 11.5652 138.821 11.5205C138.755 11.4757 138.693 11.4254 138.637 11.3688C138.579 11.3118 138.529 11.2501 138.484 11.1838C138.44 11.117 138.402 11.0466 138.372 10.9726C138.341 10.8985 138.318 10.8225 138.302 10.7438C138.287 10.6652 138.279 10.5855 138.279 10.5053C138.279 10.4252 138.287 10.346 138.302 10.2674C138.318 10.1887 138.341 10.1127 138.372 10.0387C138.402 9.96412 138.44 9.89422 138.484 9.82741C138.529 9.76059 138.579 9.69891 138.637 9.64237C138.693 9.58583 138.755 9.53495 138.821 9.49075C138.888 9.44603 138.958 9.40851 139.032 9.37767C139.106 9.34735 139.183 9.32422 139.262 9.30829C139.34 9.29287 139.419 9.28516 139.5 9.28516C139.58 9.28516 139.659 9.29287 139.737 9.30829C139.816 9.32422 139.893 9.34735 139.967 9.37767C140.041 9.40851 140.111 9.44603 140.177 9.49075C140.244 9.53495 140.306 9.58583 140.362 9.64237C140.419 9.69891 140.47 9.76059 140.514 9.82741C140.559 9.89422 140.596 9.96412 140.627 10.0387C140.658 10.1127 140.681 10.1887 140.697 10.2674C140.712 10.346 140.72 10.4252 140.72 10.5053C140.72 10.5855 140.712 10.6652 140.697 10.7433C140.681 10.822 140.658 10.8985 140.627 10.9726C140.596 11.0466 140.558 11.1165 140.514 11.1833C140.469 11.2501 140.419 11.3118 140.362 11.3683C140.305 11.4249 140.244 11.4752 140.177 11.5199C140.111 11.5647 140.04 11.6022 139.966 11.633C139.892 11.6633 139.816 11.687 139.737 11.7024C139.659 11.7183 139.58 11.726 139.5 11.726ZM139.5 10.3311C139.476 10.3311 139.454 10.3357 139.433 10.3445C139.411 10.3532 139.393 10.3661 139.376 10.382C139.36 10.3984 139.347 10.4175 139.338 10.439C139.329 10.4601 139.325 10.4822 139.325 10.5053C139.325 10.5285 139.329 10.5511 139.338 10.5722C139.347 10.5938 139.36 10.6123 139.376 10.6287C139.393 10.6451 139.411 10.658 139.433 10.6667C139.454 10.6755 139.476 10.6801 139.5 10.6801C139.523 10.6801 139.545 10.6755 139.566 10.6667C139.587 10.658 139.606 10.6451 139.623 10.6287C139.639 10.6123 139.652 10.5938 139.66 10.5722C139.67 10.5511 139.674 10.5285 139.674 10.5053C139.674 10.4822 139.669 10.4601 139.66 10.439C139.652 10.4175 139.639 10.3984 139.623 10.3825C139.606 10.3661 139.587 10.3532 139.566 10.3445C139.545 10.3357 139.523 10.3311 139.5 10.3311Z" fill="#F5F5F5"/>
<mask id="mask0_308_110" style="mask-type:luminance" maskUnits="userSpaceOnUse" x="132" y="3" width="15" height="15">
<path d="M132 3H147V18H132V3Z" fill="white"/>
</mask>
<g mask="url(#mask0_308_110)">
<path d="M139.499 18.0003C135.365 18.0003 132.001 14.6363 132.001 10.5019C132.001 6.36792 135.365 3.00392 139.499 3.00392C139.992 3.00289 140.479 3.04967 140.963 3.14527C141.446 3.24087 141.915 3.38273 142.37 3.57084C142.825 3.75947 143.258 3.99077 143.667 4.26523C144.076 4.53918 144.454 4.85065 144.801 5.20016C144.826 5.22432 144.847 5.25053 144.866 5.27931C144.885 5.3081 144.902 5.33791 144.915 5.36977C144.928 5.40164 144.938 5.43402 144.944 5.46794C144.951 5.50135 144.955 5.53579 144.955 5.56971C144.955 5.60415 144.951 5.63807 144.944 5.67199C144.938 5.70592 144.928 5.7383 144.915 5.77017C144.902 5.80203 144.885 5.83184 144.866 5.86063C144.847 5.88941 144.826 5.91562 144.802 5.93978C144.777 5.96445 144.751 5.98604 144.722 6.00505C144.694 6.02407 144.663 6.04 144.632 6.05337C144.6 6.06673 144.567 6.0765 144.534 6.08318C144.5 6.08986 144.466 6.09346 144.431 6.09346C144.397 6.09346 144.363 6.08986 144.33 6.08318C144.296 6.0765 144.263 6.06673 144.232 6.05337C144.2 6.04052 144.169 6.02407 144.141 6.00505C144.112 5.98604 144.086 5.96445 144.061 5.94029C143.763 5.63961 143.437 5.37132 143.085 5.1354C142.733 4.89948 142.361 4.70057 141.969 4.53815C141.578 4.37625 141.174 4.25392 140.759 4.17169C140.343 4.08945 139.923 4.04936 139.499 4.05039C135.942 4.05039 133.047 6.94461 133.047 10.5019C133.047 14.0596 135.942 16.9539 139.499 16.9539C143.057 16.9539 145.951 14.0596 145.951 10.5019C145.951 10.4679 145.954 10.4335 145.961 10.4001C145.968 10.3662 145.977 10.3338 145.991 10.3019C146.004 10.2701 146.02 10.2397 146.039 10.2115C146.058 10.1827 146.08 10.1565 146.104 10.1323C146.129 10.1076 146.155 10.0861 146.184 10.067C146.212 10.048 146.242 10.0321 146.274 10.0187C146.305 10.0054 146.338 9.9956 146.372 9.98892C146.406 9.98223 146.44 9.97915 146.474 9.97915C146.508 9.97915 146.542 9.98223 146.576 9.98892C146.61 9.9956 146.643 10.0054 146.674 10.0187C146.706 10.0321 146.736 10.048 146.765 10.067C146.793 10.0861 146.82 10.1076 146.844 10.1323C146.868 10.1565 146.89 10.1827 146.909 10.2115C146.928 10.2397 146.944 10.2701 146.958 10.3019C146.971 10.3338 146.98 10.3662 146.987 10.4001C146.994 10.4335 146.997 10.4679 146.997 10.5019C146.997 14.6363 143.634 18.0003 139.499 18.0003Z" fill="#F5F5F5"/>
</g>
<path d="M139.499 14.8632C137.096 14.8632 135.14 12.9075 135.14 10.5036C135.14 8.10025 137.096 6.14456 139.499 6.14456C139.786 6.14353 140.069 6.17129 140.35 6.2268C140.631 6.28231 140.904 6.36454 141.168 6.47402C141.433 6.58401 141.684 6.71816 141.922 6.87749C142.16 7.03683 142.38 7.21826 142.582 7.42129C142.606 7.44544 142.628 7.47166 142.647 7.50044C142.666 7.52871 142.682 7.55903 142.695 7.5909C142.708 7.62277 142.718 7.65515 142.725 7.68907C142.731 7.72248 142.735 7.7564 142.735 7.79084C142.735 7.82527 142.731 7.8592 142.725 7.89312C142.718 7.92653 142.708 7.95942 142.695 7.99078C142.682 8.02264 142.666 8.05297 142.647 8.08124C142.628 8.11002 142.606 8.13623 142.582 8.16039C142.558 8.18506 142.531 8.20665 142.503 8.22566C142.474 8.24468 142.444 8.26062 142.412 8.27398C142.38 8.28734 142.348 8.29711 142.314 8.30379C142.281 8.31047 142.246 8.31407 142.212 8.31407C142.178 8.31407 142.144 8.31047 142.11 8.30379C142.077 8.29711 142.044 8.28734 142.012 8.27449C141.98 8.26113 141.95 8.2452 141.921 8.22618C141.893 8.20716 141.866 8.18557 141.842 8.16142C141.753 8.07147 141.658 7.98769 141.559 7.90854C141.46 7.8299 141.356 7.75743 141.249 7.69061C141.142 7.62328 141.031 7.56314 140.916 7.50866C140.801 7.45469 140.684 7.40741 140.564 7.3668C140.445 7.32569 140.323 7.29228 140.199 7.26555C140.075 7.23882 139.95 7.21929 139.824 7.20644C139.698 7.19411 139.572 7.18897 139.446 7.19102C139.319 7.19308 139.193 7.20233 139.067 7.21929C138.941 7.23574 138.817 7.25938 138.695 7.29022C138.572 7.32055 138.451 7.35858 138.332 7.40278C138.214 7.4475 138.098 7.4989 137.986 7.55646C137.873 7.61454 137.764 7.67879 137.659 7.7492C137.554 7.81962 137.453 7.89569 137.356 7.97741C137.26 8.05914 137.168 8.14651 137.081 8.23903C136.995 8.33154 136.914 8.42817 136.839 8.52994C136.763 8.63171 136.694 8.73759 136.63 8.84707C136.567 8.95706 136.51 9.06962 136.46 9.18578C136.409 9.30194 136.366 9.42067 136.329 9.54197C136.292 9.66327 136.262 9.78611 136.24 9.91049C136.217 10.0354 136.202 10.1608 136.194 10.2872C136.185 10.4132 136.184 10.5396 136.19 10.666C136.197 10.793 136.21 10.9184 136.231 11.0433C136.251 11.1682 136.279 11.2916 136.314 11.4134C136.348 11.5352 136.39 11.6544 136.439 11.7716C136.487 11.8888 136.542 12.0024 136.603 12.1129C136.665 12.2239 136.733 12.3308 136.806 12.4336C136.88 12.5364 136.959 12.6351 137.045 12.7286C137.13 12.8227 137.219 12.9111 137.315 12.9949C137.41 13.0782 137.51 13.1558 137.614 13.2282C137.718 13.3002 137.826 13.366 137.937 13.4256C138.049 13.4852 138.164 13.5387 138.282 13.5849C138.4 13.6317 138.519 13.6713 138.642 13.7042C138.764 13.7366 138.888 13.7623 139.013 13.7808C139.139 13.7998 139.265 13.8111 139.391 13.8152C139.517 13.8193 139.644 13.8162 139.77 13.8059C139.896 13.7957 140.022 13.7777 140.146 13.753C140.27 13.7283 140.392 13.697 140.513 13.6579C140.633 13.6194 140.752 13.5736 140.867 13.5217C140.982 13.4693 141.094 13.4107 141.203 13.3454C141.311 13.2807 141.416 13.2092 141.516 13.1321C141.617 13.055 141.713 12.9728 141.804 12.8844C141.895 12.7965 141.98 12.7035 142.061 12.6058C142.141 12.5076 142.215 12.4054 142.284 12.299C142.353 12.1926 142.415 12.0826 142.471 11.969C142.527 11.8554 142.576 11.7392 142.619 11.62C142.661 11.5007 142.697 11.3794 142.726 11.2561C142.755 11.1327 142.776 11.0084 142.791 10.8824C142.805 10.7565 142.813 10.6306 142.813 10.5036C142.813 10.4697 142.816 10.4353 142.822 10.4019C142.829 10.3679 142.839 10.3356 142.852 10.3037C142.866 10.2718 142.881 10.2415 142.9 10.2132C142.919 10.1844 142.942 10.1582 142.966 10.1341C142.99 10.1094 143.017 10.0878 143.045 10.0688C143.074 10.0498 143.104 10.0338 143.135 10.0205C143.167 10.0071 143.2 9.99735 143.234 9.99067C143.267 9.98399 143.301 9.98091 143.336 9.98091C143.37 9.98091 143.404 9.98399 143.438 9.99067C143.472 9.99735 143.504 10.0071 143.536 10.0205C143.568 10.0338 143.597 10.0498 143.626 10.0688C143.655 10.0878 143.681 10.1094 143.705 10.1341C143.73 10.1582 143.752 10.1844 143.771 10.2132C143.79 10.2415 143.806 10.2718 143.819 10.3037C143.832 10.3356 143.842 10.3679 143.849 10.4019C143.855 10.4353 143.859 10.4697 143.859 10.5036C143.859 12.9075 141.903 14.8632 139.499 14.8632Z" fill="#F5F5F5"/>
<path d="M139.499 11.0255C139.448 11.0255 139.397 11.0178 139.347 11.0029C139.298 10.988 139.252 10.9659 139.209 10.9376C139.166 10.9088 139.128 10.8744 139.095 10.8343C139.062 10.7942 139.036 10.7505 139.016 10.7027C138.996 10.6549 138.984 10.6051 138.979 10.5537C138.974 10.5023 138.976 10.4514 138.987 10.4005C138.996 10.3496 139.014 10.3013 139.038 10.2561C139.063 10.2103 139.093 10.1692 139.129 10.1327L144.062 5.20056C144.086 5.1764 144.112 5.15481 144.141 5.13528C144.17 5.11626 144.2 5.10033 144.231 5.08697C144.263 5.07412 144.296 5.06384 144.329 5.05715C144.363 5.05047 144.397 5.04688 144.432 5.04688C144.466 5.04688 144.5 5.05047 144.534 5.05715C144.567 5.06384 144.6 5.0736 144.632 5.08697C144.663 5.09982 144.694 5.11626 144.723 5.13528C144.751 5.1543 144.778 5.17588 144.802 5.20056C144.826 5.22471 144.848 5.25093 144.867 5.27971C144.886 5.30798 144.902 5.3383 144.915 5.37017C144.928 5.40204 144.938 5.43442 144.945 5.46834C144.952 5.50175 144.955 5.53618 144.955 5.57062C144.955 5.60454 144.952 5.63898 144.945 5.67239C144.938 5.70631 144.928 5.73869 144.915 5.77056C144.902 5.80243 144.885 5.83275 144.866 5.86102C144.847 5.8898 144.826 5.91602 144.801 5.94017L139.869 10.8723C139.767 10.9746 139.644 11.0255 139.499 11.0255Z" fill="#F5F5F5"/>
<path d="M145.079 15.9096C144.999 15.9096 144.92 15.9019 144.841 15.8865C144.763 15.8706 144.686 15.8475 144.612 15.8171C144.538 15.7863 144.468 15.7488 144.401 15.7041C144.335 15.6598 144.273 15.609 144.216 15.5524C144.16 15.4959 144.109 15.4342 144.065 15.3674C144.02 15.3006 143.983 15.2302 143.952 15.1561C143.921 15.0821 143.898 15.0061 143.882 14.9274C143.867 14.8488 143.859 14.7696 143.859 14.6895C143.859 14.6093 143.867 14.5296 143.882 14.451C143.898 14.3723 143.921 14.2963 143.952 14.2222C143.983 14.1482 144.02 14.0778 144.065 14.011C144.109 13.9447 144.16 13.883 144.216 13.826C144.273 13.7694 144.335 13.7191 144.401 13.6743C144.468 13.6296 144.538 13.5921 144.612 13.5618C144.686 13.5309 144.763 13.5078 144.841 13.4919C144.92 13.4765 144.999 13.4688 145.079 13.4688C145.16 13.4688 145.239 13.4765 145.317 13.4919C145.396 13.5078 145.473 13.5309 145.547 13.5618C145.621 13.5921 145.691 13.6296 145.758 13.6743C145.824 13.7191 145.886 13.7694 145.942 13.826C145.999 13.883 146.05 13.9447 146.094 14.011C146.139 14.0778 146.177 14.1482 146.207 14.2222C146.238 14.2963 146.261 14.3723 146.276 14.451C146.292 14.5296 146.3 14.6093 146.3 14.6895C146.3 14.7691 146.292 14.8488 146.276 14.9274C146.26 15.0061 146.237 15.0821 146.207 15.1561C146.176 15.2302 146.139 15.3006 146.094 15.3669C146.049 15.4337 145.999 15.4954 145.942 15.5519C145.885 15.6084 145.824 15.6593 145.757 15.7035C145.69 15.7483 145.62 15.7858 145.547 15.8166C145.473 15.8475 145.396 15.8706 145.317 15.886C145.239 15.9019 145.16 15.9096 145.079 15.9096ZM145.079 14.5147C145.056 14.5147 145.034 14.5193 145.013 14.5281C144.991 14.5368 144.972 14.5497 144.956 14.5661C144.94 14.582 144.927 14.601 144.918 14.6226C144.91 14.6437 144.905 14.6663 144.905 14.6895C144.905 14.7126 144.91 14.7347 144.918 14.7558C144.927 14.7773 144.94 14.7964 144.956 14.8123C144.972 14.8287 144.991 14.8416 145.013 14.8503C145.034 14.8591 145.056 14.8637 145.079 14.8637C145.102 14.8637 145.125 14.8591 145.146 14.8503C145.168 14.8416 145.186 14.8287 145.203 14.8123C145.219 14.7964 145.231 14.7773 145.241 14.7558C145.249 14.7347 145.254 14.7126 145.254 14.6895C145.254 14.6663 145.249 14.6437 145.24 14.6226C145.231 14.601 145.219 14.5825 145.203 14.5661C145.186 14.5497 145.167 14.5368 145.146 14.5281C145.125 14.5193 145.102 14.5147 145.079 14.5147Z" fill="#F5F5F5"/>
<path d="M137.407 14.8633C137.327 14.8633 137.247 14.8556 137.169 14.8396C137.09 14.8242 137.014 14.8011 136.94 14.7703C136.866 14.7394 136.795 14.7019 136.729 14.6577C136.662 14.613 136.601 14.5626 136.544 14.5056C136.487 14.449 136.437 14.3873 136.392 14.3205C136.348 14.2542 136.31 14.1838 136.279 14.1098C136.249 14.0358 136.225 13.9592 136.21 13.8806C136.194 13.8019 136.186 13.7228 136.186 13.6426C136.186 13.5624 136.194 13.4832 136.21 13.4046C136.225 13.326 136.249 13.2494 136.279 13.1754C136.31 13.1014 136.348 13.0309 136.392 12.9646C136.437 12.8978 136.487 12.8361 136.544 12.7796C136.601 12.7231 136.662 12.6722 136.729 12.6275C136.795 12.5833 136.866 12.5457 136.94 12.5149C137.014 12.4841 137.09 12.4609 137.169 12.4455C137.247 12.4296 137.327 12.4219 137.407 12.4219C137.487 12.4219 137.566 12.4296 137.645 12.4455C137.724 12.4609 137.8 12.4841 137.874 12.5149C137.948 12.5457 138.018 12.5833 138.085 12.6275C138.152 12.6722 138.213 12.7231 138.27 12.7796C138.327 12.8361 138.377 12.8978 138.422 12.9646C138.466 13.0309 138.504 13.1014 138.535 13.1754C138.565 13.2494 138.589 13.326 138.604 13.4046C138.62 13.4832 138.628 13.5624 138.628 13.6426C138.627 13.7228 138.62 13.8019 138.604 13.8806C138.588 13.9592 138.565 14.0353 138.534 14.1093C138.503 14.1833 138.466 14.2537 138.421 14.3205C138.377 14.3868 138.326 14.4485 138.27 14.505C138.213 14.5621 138.151 14.6125 138.084 14.6572C138.018 14.7014 137.948 14.7394 137.874 14.7697C137.8 14.8006 137.724 14.8237 137.645 14.8396C137.566 14.8551 137.487 14.8633 137.407 14.8633ZM137.407 13.4683C137.384 13.4683 137.361 13.4725 137.34 13.4817C137.319 13.4904 137.3 13.5028 137.284 13.5192C137.267 13.5357 137.255 13.5547 137.246 13.5758C137.237 13.5973 137.232 13.6194 137.232 13.6426C137.232 13.6657 137.237 13.6878 137.246 13.7094C137.255 13.7305 137.267 13.7495 137.284 13.7659C137.3 13.7824 137.319 13.7947 137.34 13.8035C137.361 13.8127 137.384 13.8168 137.407 13.8168C137.43 13.8168 137.452 13.8127 137.474 13.8035C137.495 13.7947 137.514 13.7824 137.53 13.7659C137.546 13.7495 137.559 13.7305 137.568 13.7094C137.577 13.6878 137.581 13.6657 137.581 13.6426C137.581 13.6194 137.577 13.5973 137.568 13.5758C137.559 13.5547 137.546 13.5357 137.53 13.5192C137.514 13.5028 137.495 13.4904 137.474 13.4817C137.452 13.4725 137.43 13.4683 137.407 13.4683Z" fill="#F5F5F5"/>
</svg>
