<svg width="90" height="90" viewBox="0 0 90 90" fill="none" xmlns="http://www.w3.org/2000/svg">
<rect width="90" height="90" rx="45" fill="#6926D9"/>
<path d="M44.998 49.9081C44.6773 49.9081 44.3587 49.8773 44.0462 49.8156C43.7316 49.7519 43.4253 49.6593 43.1292 49.536C42.8332 49.4147 42.5515 49.2646 42.2842 49.0857C42.019 48.9069 41.7723 48.7054 41.5462 48.4792C41.3179 48.251 41.1165 48.0043 40.9376 47.7391C40.7608 47.4718 40.6087 47.1902 40.4874 46.8941C40.364 46.5981 40.2715 46.2938 40.2098 45.9792C40.1461 45.6647 40.1152 45.346 40.1152 45.0253C40.1152 44.7046 40.1461 44.388 40.2098 44.0734C40.2715 43.7588 40.364 43.4546 40.4874 43.1585C40.6087 42.8604 40.7608 42.5808 40.9376 42.3135C41.1165 42.0463 41.3179 41.7995 41.5462 41.5734C41.7723 41.3472 42.019 41.1437 42.2842 40.9669C42.5515 40.788 42.8332 40.638 43.1292 40.5146C43.4253 40.3933 43.7316 40.3008 44.0462 40.237C44.3587 40.1754 44.6773 40.1445 44.998 40.1445C45.3188 40.1445 45.6354 40.1754 45.9499 40.237C46.2645 40.3008 46.5708 40.3933 46.8669 40.5146C47.1629 40.638 47.4446 40.788 47.7098 40.9669C47.9771 41.1437 48.2238 41.3472 48.4499 41.5734C48.6761 41.7995 48.8796 42.0463 49.0564 42.3135C49.2353 42.5808 49.3854 42.8604 49.5087 43.1585C49.6321 43.4546 49.7246 43.7588 49.7863 44.0734C49.848 44.388 49.8809 44.7046 49.8809 45.0253C49.8788 45.346 49.848 45.6647 49.7863 45.9772C49.7226 46.2917 49.63 46.5981 49.5067 46.8941C49.3833 47.1902 49.2332 47.4698 49.0564 47.737C48.8776 48.0043 48.674 48.251 48.4479 48.4772C48.2217 48.7033 47.975 48.9048 47.7098 49.0837C47.4425 49.2625 47.1609 49.4126 46.8648 49.536C46.5688 49.6573 46.2645 49.7519 45.9499 49.8135C45.6354 49.8773 45.3188 49.9081 44.998 49.9081ZM44.998 44.3283C44.9055 44.3283 44.8171 44.3468 44.7308 44.3818C44.6444 44.4167 44.5704 44.4681 44.5046 44.5319C44.4388 44.5977 44.3895 44.6737 44.3525 44.7601C44.3175 44.8444 44.3011 44.9328 44.3011 45.0253C44.3011 45.1178 44.3175 45.2083 44.3525 45.2926C44.3895 45.3789 44.4388 45.4529 44.5046 45.5187C44.5704 45.5845 44.6444 45.6359 44.7308 45.6708C44.8171 45.7058 44.9055 45.7243 44.998 45.7243C45.0906 45.7243 45.179 45.7058 45.2653 45.6708C45.3496 45.6359 45.4257 45.5845 45.4915 45.5187C45.5573 45.4529 45.6066 45.3789 45.6415 45.2926C45.6786 45.2083 45.695 45.1178 45.695 45.0253C45.695 44.9328 45.6765 44.8444 45.6415 44.7601C45.6066 44.6737 45.5552 44.5977 45.4915 44.5339C45.4257 44.4681 45.3496 44.4167 45.2653 44.3818C45.179 44.3468 45.0906 44.3283 44.998 44.3283Z" fill="white"/>
<mask id="mask0_270_82" style="mask-type:luminance" maskUnits="userSpaceOnUse" x="15" y="15" width="60" height="60">
<path d="M15 45C15 28.4315 28.4315 15 45 15C61.5685 15 75 28.4315 75 45C75 61.5685 61.5685 75 45 75C28.4315 75 15 61.5685 15 45Z" fill="white"/>
</mask>
<g mask="url(#mask0_270_82)">
<path d="M44.9979 75.0013C28.4601 75.0013 15.0062 61.5453 15.0062 45.0075C15.0062 28.4717 28.4601 15.0157 44.9979 15.0157C46.9675 15.0116 48.9186 15.1987 50.8512 15.5811C52.7858 15.9635 54.6608 16.5309 56.4823 17.2834C58.3018 18.0379 60.0308 18.9631 61.6674 20.0609C63.3039 21.1567 64.817 22.4026 66.2048 23.8006C66.3035 23.8973 66.3898 24.0021 66.4659 24.1173C66.5419 24.2324 66.6077 24.3516 66.6591 24.4791C66.7126 24.6066 66.7516 24.7361 66.7784 24.8718C66.8051 25.0054 66.8195 25.1432 66.8195 25.2788C66.8195 25.4166 66.8051 25.5523 66.7784 25.688C66.7516 25.8237 66.7126 25.9532 66.6591 26.0807C66.6077 26.2081 66.5419 26.3274 66.4659 26.4425C66.3898 26.5576 66.3035 26.6625 66.2068 26.7591C66.1102 26.8578 66.0033 26.9441 65.8902 27.0202C65.7751 27.0963 65.6538 27.16 65.5284 27.2135C65.4009 27.2669 65.2693 27.306 65.1357 27.3327C65 27.3594 64.8643 27.3738 64.7266 27.3738C64.5888 27.3738 64.4531 27.3594 64.3195 27.3327C64.1838 27.306 64.0522 27.2669 63.9268 27.2135C63.7993 27.1621 63.678 27.0963 63.565 27.0202C63.4498 26.9441 63.345 26.8578 63.2463 26.7612C62.0518 25.5585 60.7504 24.4853 59.3421 23.5416C57.9338 22.5979 56.4453 21.8023 54.8787 21.1526C53.3121 20.505 51.6982 20.0157 50.035 19.6867C48.3717 19.3578 46.692 19.1974 44.9979 19.2015C30.7669 19.2015 19.19 30.7784 19.19 45.0075C19.19 59.2386 30.7669 70.8154 44.9979 70.8154C59.229 70.8154 70.8039 59.2386 70.8039 45.0075C70.8039 44.8718 70.8183 44.734 70.845 44.6004C70.8717 44.4647 70.9108 44.3352 70.9642 44.2077C71.0156 44.0802 71.0814 43.9589 71.1575 43.8459C71.2336 43.7307 71.3199 43.6259 71.4186 43.5293C71.5152 43.4306 71.6201 43.3442 71.7352 43.2682C71.8483 43.1921 71.9696 43.1284 72.097 43.0749C72.2225 43.0214 72.354 42.9824 72.4897 42.9557C72.6234 42.9289 72.7591 42.9166 72.8968 42.9166C73.0345 42.9166 73.1702 42.9289 73.3059 42.9557C73.4396 42.9824 73.5711 43.0214 73.6986 43.0749C73.824 43.1284 73.9453 43.1921 74.0605 43.2682C74.1735 43.3442 74.2804 43.4306 74.3771 43.5293C74.4737 43.6259 74.56 43.7307 74.6361 43.8459C74.7142 43.9589 74.778 44.0802 74.8314 44.2077C74.8828 44.3352 74.9219 44.4647 74.9486 44.6004C74.9753 44.734 74.9897 44.8718 74.9897 45.0075C74.9897 61.5453 61.5358 75.0013 44.9979 75.0013Z" fill="white"/>
</g>
<path d="M44.998 62.4509C35.3825 62.4509 27.5597 54.6281 27.5597 45.0125C27.5597 35.3991 35.3825 27.5763 44.998 27.5763C46.1432 27.5722 47.278 27.6832 48.4006 27.9052C49.5252 28.1273 50.6148 28.4562 51.6736 28.8941C52.7324 29.3341 53.7377 29.8707 54.6896 30.508C55.6395 31.1454 56.5194 31.8711 57.3274 32.6832C57.424 32.7798 57.5124 32.8847 57.5885 32.9998C57.6645 33.1129 57.7283 33.2342 57.7797 33.3616C57.8331 33.4891 57.8722 33.6186 57.8989 33.7543C57.9256 33.888 57.94 34.0236 57.94 34.1614C57.94 34.2991 57.9256 34.4348 57.8989 34.5705C57.8722 34.7042 57.8331 34.8357 57.7797 34.9611C57.7283 35.0886 57.6625 35.2099 57.5864 35.323C57.5103 35.4381 57.424 35.543 57.3274 35.6396C57.2307 35.7383 57.1238 35.8246 57.0108 35.9007C56.8956 35.9768 56.7764 36.0405 56.6489 36.094C56.5215 36.1474 56.3919 36.1865 56.2562 36.2132C56.1226 36.2399 55.9849 36.2543 55.8492 36.2543C55.7114 36.2543 55.5757 36.2399 55.44 36.2132C55.3064 36.1865 55.1748 36.1474 55.0474 36.096C54.9219 36.0426 54.8006 35.9788 54.6855 35.9028C54.5724 35.8267 54.4655 35.7403 54.3689 35.6437C54.0112 35.2839 53.6329 34.9488 53.2361 34.6322C52.8393 34.3176 52.4261 34.0278 51.9964 33.7605C51.5667 33.4912 51.1226 33.2506 50.6641 33.0327C50.2057 32.8168 49.7369 32.6277 49.2579 32.4653C48.7789 32.3008 48.2916 32.1672 47.7961 32.0602C47.3006 31.9533 46.8011 31.8752 46.2974 31.8238C45.7937 31.7745 45.2879 31.7539 44.7821 31.7621C44.2743 31.7704 43.7706 31.8074 43.269 31.8752C42.7653 31.941 42.2698 32.0356 41.7784 32.1589C41.2871 32.2802 40.8039 32.4324 40.329 32.6092C39.8562 32.788 39.3936 32.9936 38.9433 33.2239C38.4931 33.4562 38.0572 33.7132 37.6358 33.9949C37.2143 34.2765 36.8113 34.5808 36.4248 34.9077C36.0383 35.2346 35.6724 35.5841 35.3249 35.9542C34.9795 36.3242 34.6547 36.7107 34.3545 37.1178C34.0523 37.5249 33.7747 37.9484 33.5219 38.3863C33.2669 38.8263 33.0408 39.2765 32.8393 39.7412C32.6378 40.2058 32.4631 40.6807 32.3171 41.1659C32.1691 41.6511 32.0498 42.1425 31.9594 42.64C31.8689 43.1396 31.8072 43.6412 31.7743 44.147C31.7414 44.6507 31.7373 45.1565 31.762 45.6622C31.7867 46.17 31.8401 46.6717 31.9224 47.1713C32.0046 47.6709 32.1156 48.1643 32.2554 48.6515C32.3932 49.1388 32.5597 49.6158 32.755 50.0845C32.9483 50.5533 33.1682 51.0076 33.4129 51.4496C33.6596 51.8937 33.931 52.3213 34.225 52.7325C34.521 53.1437 34.8377 53.5384 35.1789 53.9126C35.5182 54.2889 35.8779 54.6425 36.2603 54.9776C36.6407 55.3107 37.0395 55.6211 37.4548 55.911C37.8722 56.1988 38.3039 56.462 38.7501 56.7005C39.1962 56.9389 39.6567 57.1528 40.1275 57.3378C40.5983 57.5249 41.0774 57.6832 41.5667 57.8148C42.056 57.9443 42.5515 58.0471 43.0531 58.1211C43.5548 58.1972 44.0585 58.2424 44.5642 58.2588C45.07 58.2753 45.5757 58.263 46.0815 58.2218C46.5852 58.1807 47.0868 58.1088 47.5823 58.0101C48.0798 57.9114 48.5691 57.786 49.0523 57.6297C49.5334 57.4755 50.0062 57.2926 50.4668 57.0849C50.9273 56.8752 51.3755 56.6408 51.8113 56.3797C52.2451 56.1207 52.6625 55.8349 53.0654 55.5265C53.4664 55.2181 53.8508 54.8892 54.2147 54.5356C54.5786 54.184 54.9199 53.8119 55.2427 53.4213C55.5634 53.0286 55.8615 52.6195 56.1349 52.1939C56.4104 51.7683 56.6592 51.3283 56.8833 50.874C57.1074 50.4196 57.3048 49.955 57.4754 49.478C57.646 49.001 57.7879 48.5158 57.903 48.0224C58.0182 47.529 58.1045 47.0315 58.1641 46.5278C58.2217 46.0241 58.2505 45.5204 58.2505 45.0125C58.2505 44.8769 58.2628 44.7391 58.2895 44.6055C58.3163 44.4698 58.3574 44.3403 58.4088 44.2128C58.4622 44.0853 58.526 43.964 58.602 43.851C58.6781 43.7358 58.7665 43.631 58.8631 43.5343C58.9598 43.4357 59.0667 43.3493 59.1798 43.2732C59.2949 43.1972 59.4141 43.1334 59.5416 43.08C59.6691 43.0265 59.7986 42.9875 59.9343 42.9607C60.07 42.934 60.2057 42.9217 60.3434 42.9217C60.4791 42.9217 60.6168 42.934 60.7505 42.9607C60.8862 42.9875 61.0157 43.0265 61.1432 43.08C61.2706 43.1334 61.3899 43.1972 61.505 43.2732C61.6201 43.3493 61.725 43.4357 61.8216 43.5343C61.9182 43.631 62.0066 43.7358 62.0827 43.851C62.1588 43.964 62.2225 44.0853 62.276 44.2128C62.3274 44.3403 62.3685 44.4698 62.3952 44.6055C62.4219 44.7391 62.4343 44.8769 62.4343 45.0125C62.4343 54.6281 54.6136 62.4509 44.998 62.4509Z" fill="white"/>
<path d="M70.8039 21.3036C70.6682 21.3036 70.5346 21.2892 70.4009 21.2604C70.1337 21.1966 69.8828 21.0939 69.6464 20.954C69.5333 20.8739 69.4264 20.7855 69.3257 20.6888C69.2291 20.5881 69.1427 20.4812 69.0605 20.3681C68.9865 20.2509 68.9227 20.1296 68.8652 20.0042C68.8199 19.8767 68.7829 19.7472 68.7541 19.6156C68.7254 19.482 68.711 19.3463 68.713 19.2106C68.7151 18.6329 68.9207 18.1416 69.3257 17.7304C69.4264 17.6358 69.5333 17.5474 69.6464 17.4672C69.7615 17.3911 69.8808 17.3315 70.0083 17.2842C70.1357 17.2287 70.2652 17.1855 70.4009 17.1588C70.6703 17.1033 70.9396 17.1033 71.2089 17.1588C71.3446 17.1855 71.4741 17.2287 71.5995 17.2842C71.727 17.3315 71.8483 17.3911 71.9634 17.4672C72.0765 17.5474 72.1834 17.6358 72.2821 17.7304C72.6892 18.1395 72.8948 18.6329 72.8968 19.2106C72.8989 19.3463 72.8845 19.482 72.8557 19.6156C72.8269 19.7472 72.7899 19.8767 72.7426 20.0042C72.6871 20.1296 72.6213 20.2509 72.5494 20.3681C72.4671 20.4812 72.3787 20.5881 72.2821 20.6888C71.873 21.0959 71.3816 21.2994 70.8039 21.3036Z" fill="white"/>
<path d="M44.998 47.102C44.7903 47.102 44.5888 47.0711 44.3894 47.0115C44.192 46.9519 44.007 46.8635 43.8343 46.7504C43.6637 46.6353 43.5115 46.4975 43.3799 46.3372C43.2484 46.1768 43.1435 46.0021 43.0654 45.8109C42.9852 45.6197 42.9359 45.4202 42.9153 45.2146C42.8947 45.009 42.905 44.8055 42.9461 44.602C42.9852 44.3984 43.0551 44.2052 43.1517 44.0243C43.2504 43.8413 43.3717 43.6768 43.5177 43.5308L63.2463 23.8022C63.3429 23.7056 63.4498 23.6192 63.5629 23.5411C63.6781 23.465 63.7994 23.4013 63.9248 23.3479C64.0522 23.2965 64.1838 23.2553 64.3174 23.2286C64.4531 23.2019 64.5888 23.1875 64.7266 23.1875C64.8643 23.1875 65 23.2019 65.1357 23.2286C65.2693 23.2553 65.4009 23.2944 65.5284 23.3479C65.6538 23.3993 65.7751 23.465 65.8902 23.5411C66.0033 23.6172 66.1102 23.7035 66.2068 23.8022C66.3035 23.8988 66.3919 24.0037 66.4679 24.1188C66.544 24.2319 66.6077 24.3532 66.6612 24.4807C66.7126 24.6081 66.7537 24.7377 66.7804 24.8734C66.8072 25.007 66.8195 25.1447 66.8195 25.2825C66.8195 25.4182 66.8072 25.5559 66.7784 25.6896C66.7517 25.8252 66.7126 25.9548 66.6591 26.0822C66.6077 26.2097 66.542 26.331 66.4659 26.4441C66.3898 26.5592 66.3035 26.6641 66.2048 26.7607L46.4762 46.4893C46.0691 46.8984 45.5757 47.102 44.998 47.102Z" fill="white"/>
<path d="M67.3171 66.6366C66.9964 66.6366 66.6798 66.6058 66.3652 66.5441C66.0507 66.4804 65.7444 66.3878 65.4483 66.2666C65.1523 66.1432 64.8706 65.9931 64.6054 65.8142C64.3381 65.6374 64.0914 65.4339 63.8652 65.2078C63.6391 64.9816 63.4356 64.7349 63.2588 64.4676C63.0799 64.2003 62.9298 63.9187 62.8064 63.6226C62.6831 63.3266 62.5906 63.0223 62.5289 62.7078C62.4672 62.3932 62.4343 62.0766 62.4343 61.7559C62.4343 61.4351 62.4672 61.1165 62.5289 60.8019C62.5906 60.4874 62.6831 60.1831 62.8064 59.887C62.9298 59.591 63.0799 59.3093 63.2588 59.042C63.4356 58.7768 63.6391 58.5301 63.8652 58.3019C64.0914 58.0758 64.3381 57.8743 64.6054 57.6954C64.8706 57.5166 65.1523 57.3665 65.4483 57.2452C65.7444 57.1218 66.0507 57.0293 66.3652 56.9656C66.6798 56.9039 66.9964 56.873 67.3171 56.873C67.6379 56.873 67.9565 56.9039 68.269 56.9656C68.5836 57.0293 68.8899 57.1218 69.186 57.2452C69.482 57.3665 69.7637 57.5166 70.031 57.6954C70.2962 57.8743 70.5429 58.0758 70.769 58.3019C70.9972 58.5301 71.1987 58.7768 71.3776 59.042C71.5544 59.3093 71.7065 59.591 71.8278 59.887C71.9512 60.1831 72.0437 60.4874 72.1054 60.8019C72.1691 61.1165 72.2 61.4351 72.2 61.7559C72.2 62.0745 72.1671 62.3932 72.1054 62.7078C72.0416 63.0223 71.9491 63.3266 71.8258 63.6226C71.7045 63.9187 71.5544 64.2003 71.3755 64.4656C71.1967 64.7328 70.9952 64.9795 70.769 65.2057C70.5408 65.4318 70.2941 65.6354 70.0289 65.8122C69.7616 65.9911 69.48 66.1411 69.186 66.2645C68.8899 66.3879 68.5836 66.4804 68.269 66.542C67.9545 66.6058 67.6379 66.6366 67.3171 66.6366ZM67.3171 61.0568C67.2246 61.0568 67.1362 61.0753 67.0499 61.1103C66.9656 61.1453 66.8895 61.1966 66.8237 61.2624C66.7579 61.3262 66.7086 61.4022 66.6736 61.4886C66.6387 61.5729 66.6202 61.6633 66.6202 61.7559C66.6202 61.8484 66.6387 61.9368 66.6736 62.0211C66.7086 62.1074 66.7579 62.1835 66.8237 62.2472C66.8895 62.313 66.9656 62.3644 67.0499 62.3994C67.1362 62.4343 67.2246 62.4528 67.3171 62.4528C67.4097 62.4528 67.4981 62.4343 67.5844 62.3994C67.6708 62.3644 67.7448 62.313 67.8106 62.2472C67.8763 62.1835 67.9257 62.1074 67.9627 62.0211C67.9976 61.9368 68.0141 61.8484 68.0141 61.7559C68.0141 61.6633 67.9976 61.5729 67.9606 61.4886C67.9257 61.4022 67.8763 61.3282 67.8106 61.2624C67.7448 61.1966 67.6687 61.1453 67.5844 61.1103C67.4981 61.0753 67.4097 61.0568 67.3171 61.0568Z" fill="white"/>
<path d="M36.6283 62.457C36.3076 62.457 35.9889 62.4262 35.6743 62.3625C35.3618 62.3008 35.0555 62.2083 34.7595 62.0849C34.4634 61.9616 34.1817 61.8115 33.9145 61.6347C33.6493 61.4558 33.4026 61.2543 33.1764 61.0261C32.9482 60.8 32.7467 60.5532 32.5679 60.286C32.391 60.0208 32.2389 59.7391 32.1176 59.4431C31.9942 59.147 31.9017 58.8407 31.8401 58.5261C31.7763 58.2116 31.7455 57.8949 31.7455 57.5742C31.7455 57.2535 31.7763 56.9369 31.8401 56.6223C31.9017 56.3078 31.9942 56.0014 32.1176 55.7054C32.2389 55.4093 32.391 55.1277 32.5679 54.8625C32.7467 54.5952 32.9482 54.3485 33.1764 54.1223C33.4026 53.8962 33.6493 53.6926 33.9145 53.5138C34.1817 53.337 34.4634 53.1869 34.7595 53.0635C35.0555 52.9402 35.3618 52.8477 35.6743 52.786C35.9889 52.7222 36.3076 52.6914 36.6283 52.6914C36.949 52.6914 37.2656 52.7222 37.5802 52.786C37.8947 52.8477 38.199 52.9402 38.4971 53.0635C38.7932 53.1869 39.0728 53.337 39.3401 53.5138C39.6073 53.6926 39.854 53.8962 40.0802 54.1223C40.3063 54.3485 40.5099 54.5952 40.6867 54.8625C40.8655 55.1277 41.0156 55.4093 41.139 55.7054C41.2603 56.0014 41.3549 56.3078 41.4165 56.6223C41.4782 56.9369 41.5111 57.2535 41.5111 57.5742C41.5091 57.8949 41.4782 58.2116 41.4145 58.5261C41.3528 58.8407 41.2603 59.1449 41.1369 59.441C41.0136 59.737 40.8635 60.0187 40.6846 60.286C40.5078 60.5512 40.3043 60.7979 40.0781 61.0241C39.852 61.2523 39.6053 61.4537 39.338 61.6326C39.0728 61.8094 38.7911 61.9616 38.4951 62.0829C38.199 62.2062 37.8947 62.2987 37.5802 62.3625C37.2656 62.4241 36.949 62.457 36.6283 62.457ZM36.6283 56.8773C36.5358 56.8773 36.4453 56.8937 36.361 56.9307C36.2747 56.9657 36.2007 57.015 36.1349 57.0808C36.0691 57.1466 36.0197 57.2227 35.9827 57.3069C35.9478 57.3933 35.9293 57.4817 35.9293 57.5742C35.9293 57.6667 35.9478 57.7551 35.9827 57.8415C36.0197 57.9258 36.0691 58.0019 36.1349 58.0676C36.2007 58.1334 36.2747 58.1828 36.361 58.2177C36.4453 58.2547 36.5358 58.2712 36.6283 58.2712C36.7208 58.2712 36.8092 58.2547 36.8956 58.2177C36.9799 58.1828 37.0559 58.1334 37.1217 58.0676C37.1854 58.0019 37.2368 57.9258 37.2718 57.8415C37.3067 57.7551 37.3253 57.6667 37.3253 57.5742C37.3253 57.4817 37.3067 57.3933 37.2718 57.3069C37.2368 57.2227 37.1854 57.1466 37.1217 57.0808C37.0559 57.015 36.9799 56.9657 36.8956 56.9307C36.8092 56.8937 36.7208 56.8773 36.6283 56.8773Z" fill="white"/>
</svg>
