<svg width="615" height="156" viewBox="0 0 615 156" fill="none" xmlns="http://www.w3.org/2000/svg">
<path d="M0 148.408H65.5175L65.866 146.594L1.2557 133.198L2.51127 126.011L67.1216 139.966L67.6798 137.454L6.62821 110.94L9.2795 103.614L70.4712 129.359L71.7269 127.546L17.5137 87.2859L23.0954 78.4945L76.9606 118.753L78.5652 116.59L36.1432 62.725L46.5396 54.2823L88.6125 105.636L90.4268 104.031L65.9361 41.7236L80.7979 35.444L103.893 96.4955L105.708 95.9374V28.2577H129.43V153.569H0.000370026L0 148.408ZM377.053 126.22H402.66V153.781H381.379C358.982 153.781 345.236 146.037 345.236 117.638V56.0977H330.025C327.373 56.0977 325.978 52.8879 327.792 50.9342L371.82 0.976808C373.703 -1.04657 377.122 0.279069 377.122 3.06998V28.5367H402.519V56.0969H377.122V126.219L377.053 126.22ZM285.79 26.5141C270.509 26.5141 259.067 35.3056 253.485 49.1203H252.438V28.4674H222.086V153.779H253.973V56.6545H275.254C284.534 56.6545 287.953 58.6082 287.953 68.5157V153.779H319.84V62.3055C319.772 37.1178 307.699 26.5116 285.79 26.5116L285.79 26.5141ZM166.965 153.78H198.851V28.4686H166.965V153.78ZM584.142 50.6544H582.82V28.4662H551.139V153.778H584.911V58.3976H614.636V26.5116H610.517C594.887 26.5116 587.979 33.4191 584.142 50.6532L584.142 50.6544ZM536.35 87.9135V97.4024H440.76C442.503 116.032 454.154 128.382 472.156 128.382C488.274 128.382 499.926 119.8 502.297 109.195H536.278C529.162 135.639 504.882 155.874 471.667 155.874C432.943 155.874 406.64 128.314 406.64 92.1706C406.64 56.0277 432.038 26.5142 472.506 26.5142C510.741 26.5142 536.352 52.8193 536.352 87.9149L536.35 87.9135ZM441.734 74.308H503.416C498.6 61.7486 488.415 52.7479 472.645 52.7479C458.83 52.8176 446.69 60.074 441.734 74.308Z" fill="#EA7100"/>
</svg>
